<svg xmlns="http://www.w3.org/2000/svg" viewBox="0 0 42.18 40.25"><defs><style>.cls-1{fill:#45659b;}.cls-2{fill:#b5e2ea;}.cls-3{fill:#fff;}.cls-4{fill:#9ad2f2;}</style></defs><title>special</title><g id="Layer_2" data-name="Layer 2"><g id="Layer_1-2" data-name="Layer 1"><path class="cls-1" d="M37.24,25.54V0L14.46,10.59H9.88v9.89H2.47V31a4.94,4.94,0,0,0,2.47,9.22H22.33A4.94,4.94,0,0,0,24.8,31V19.64l10-13.87V25.54a6.18,6.18,0,1,0,2.47,0ZM12.36,13.06h3.79a6.19,6.19,0,0,1,6.18,6.18v6.18h-10ZM4.94,27.89H7.41V25.42H4.94V23H9.88v4.94H22.33v2.47H4.94Zm0,9.89a2.47,2.47,0,1,1,2.47-2.47A2.48,2.48,0,0,1,4.94,37.78Zm13.11,0H9.22a5,5,0,0,0,0-5h8.83a4.91,4.91,0,0,0,0,5Zm4.28,0a2.47,2.47,0,1,1,2.47-2.47A2.48,2.48,0,0,1,22.33,37.78Zm1.91-21.6a8.7,8.7,0,0,0-5.08-5L32.25,5.05ZM36,35.31a3.71,3.71,0,1,1,3.71-3.71A3.71,3.71,0,0,1,36,35.31Z"/><path class="cls-2" d="M39.71,31.6A3.71,3.71,0,1,1,36,27.89,3.72,3.72,0,0,1,39.71,31.6Z"/><path class="cls-3" d="M24.8,35.31a2.48,2.48,0,1,1-2.47-2.47A2.48,2.48,0,0,1,24.8,35.31Z"/><path class="cls-3" d="M7.41,35.31a2.47,2.47,0,1,1-2.47-2.47A2.48,2.48,0,0,1,7.41,35.31Z"/><path class="cls-2" d="M17.38,35.31a4.94,4.94,0,0,0,.67,2.47H9.22a5,5,0,0,0,0-5h8.83A5,5,0,0,0,17.38,35.31Z"/><polygon class="cls-4" points="22.33 27.89 22.33 30.36 4.94 30.36 4.94 27.89 7.41 27.89 7.41 25.42 4.94 25.42 4.94 22.95 9.88 22.95 9.88 27.89 22.33 27.89"/><path class="cls-3" d="M22.33,19.24v6.18h-10V13.06h3.79A6.19,6.19,0,0,1,22.33,19.24Z"/></g></g></svg>