<svg xmlns="http://www.w3.org/2000/svg" viewBox="0 0 64.43 64.43"><defs><style>.cls-1{fill:#45659b;}.cls-2{fill:#b5e2ea;}.cls-3{fill:#fff;}.cls-4{fill:#9ad2f2;}.cls-5{fill:none;}</style></defs><title>special</title><g id="Layer_2" data-name="Layer 2"><g id="Layer_1-2" data-name="Layer 1"><path class="cls-1" d="M47.89,38.36V12.82L25.11,23.41H20.53V33.3H13.12V43.85a4.94,4.94,0,0,0,2.47,9.22H33a4.94,4.94,0,0,0,2.47-9.22V32.46l10-13.87V38.36a6.18,6.18,0,1,0,2.47,0ZM23,25.88H26.8A6.19,6.19,0,0,1,33,32.06v6.18H23ZM15.59,40.71h2.47V38.24H15.59V35.77h4.94v4.94H33v2.47H15.59Zm0,9.89a2.47,2.47,0,1,1,2.47-2.47A2.48,2.48,0,0,1,15.59,50.6Zm13.11,0H19.87a5,5,0,0,0,0-5H28.7a4.91,4.91,0,0,0,0,5Zm4.28,0a2.47,2.47,0,1,1,2.47-2.47A2.48,2.48,0,0,1,33,50.6ZM34.89,29A8.7,8.7,0,0,0,29.81,24L42.9,17.87ZM46.65,48.13a3.71,3.71,0,1,1,3.71-3.71A3.71,3.71,0,0,1,46.65,48.13Z"/><path class="cls-2" d="M50.36,44.42a3.71,3.71,0,1,1-3.71-3.71A3.72,3.72,0,0,1,50.36,44.42Z"/><path class="cls-3" d="M35.45,48.13A2.48,2.48,0,1,1,33,45.66,2.48,2.48,0,0,1,35.45,48.13Z"/><path class="cls-3" d="M18.06,48.13a2.47,2.47,0,1,1-2.47-2.47A2.48,2.48,0,0,1,18.06,48.13Z"/><path class="cls-2" d="M28,48.13a4.94,4.94,0,0,0,.67,2.47H19.87a5,5,0,0,0,0-5H28.7A5,5,0,0,0,28,48.13Z"/><polygon class="cls-4" points="32.98 40.71 32.98 43.18 15.59 43.18 15.59 40.71 18.05 40.71 18.05 38.24 15.59 38.24 15.59 35.77 20.52 35.77 20.52 40.71 32.98 40.71"/><path class="cls-3" d="M33,32.06v6.18H23V25.88H26.8A6.19,6.19,0,0,1,33,32.06Z"/><rect class="cls-5" width="64.43" height="64.43"/></g></g></svg>