<svg xmlns="http://www.w3.org/2000/svg" width="12.85" height="15" viewBox="0 0 12.85 15">
  <g id="cardoctor-logo" transform="translate(-63.15 172.073)">
    <path id="Subtraction_1" data-name="Subtraction 1" d="M1728.522-5885h0l-7.9-.044,2.349-4.125a3.7,3.7,0,0,0,1.644.38,3.706,3.706,0,0,0,1.525-.324l2.378,4.113Zm-8.528-.135h0l-3.994-6.808h4.929a3.745,3.745,0,0,0,1.585,2.506l-2.519,4.3Zm-3.994-7.92h0l3.99-6.9,2.494,4.38a3.746,3.746,0,0,0-1.557,2.5l-4.927.028Zm6.964-2.808h0l-2.422-4.137h7.981l-2.388,4.071a3.7,3.7,0,0,0-1.515-.32,3.705,3.705,0,0,0-1.655.385Z" transform="translate(-1652.849 5727.928)" fill="#fff"/>
    <text id="D" transform="translate(70 -162)" fill="#fff" font-size="7" font-family="Montserrat-Bold, Montserrat" font-weight="700"><tspan x="0" y="0">D</tspan></text>
  </g>
</svg>
