<svg xmlns="http://www.w3.org/2000/svg" viewBox="0 0 1018.66 191.47"><defs><style>.cls-1{fill:#225da9;}.cls-2{fill:#2996ff;}.cls-3{fill:#e23149;}.cls-4{fill:#2b3651;}.cls-5{fill:#1447ef;}.cls-6{isolation:isolate;}.cls-7{fill:#df2626;}</style></defs><title>logo</title><g id="Layer_2" data-name="Layer 2"><g id="Layer_1-2" data-name="Layer 1"><g id="Group_3689" data-name="Group 3689"><path id="Path_2767" data-name="Path 2767" class="cls-1" d="M36.62,1.4c-1.33,0-2.66.08-4,.22A38.36,38.36,0,0,1,37,1.36a36.61,36.61,0,0,1,30.9,17l-3.22-3.84A36.57,36.57,0,0,0,36.62,1.4Z"/><path id="Path_2768" data-name="Path 2768" class="cls-2" d="M74.05,137.71v16.17A37,37,0,0,1,0,155V41.16A36.83,36.83,0,0,0,8.3,59.66Z"/><path id="Path_2769" data-name="Path 2769" class="cls-3" d="M133.67,189.83a36.53,36.53,0,0,1-28.08-13.08L8.58,61.62A36.64,36.64,0,1,1,64.7,14.49l97,115.14a36.63,36.63,0,0,1-28,60.2Z"/><path id="Path_2770" data-name="Path 2770" class="cls-4" d="M245.63,189.83a36.53,36.53,0,0,1-28.08-13.08l-97-115.13A36.64,36.64,0,1,1,176.33,14.1l.33.39,97,115.14a36.62,36.62,0,0,1-28,60.2Z"/><path id="Path_2771" data-name="Path 2771" class="cls-5" d="M74.05,37.41V139.32L8.29,61.26A36.91,36.91,0,0,1,0,42.76V37.41A37.07,37.07,0,0,1,32.29.69l.28,0a39.27,39.27,0,0,1,4-.23A36.94,36.94,0,0,1,65,13.65l3.26,3.87A36.8,36.8,0,0,1,74.05,37.41Z"/></g><g id="maz.mn" class="cls-6"><g class="cls-6"><path class="cls-4" d="M521.52,56.93c3-14.8-.86-20-10.84-20-7.59,0-16.47,8.2-19.08,21.41l-8.89,43.49c-3.25,15.94-14.09,23.23-27.1,23.23s-20.81-7.29-17.56-23.23l9.11-44.86c3-14.8-.87-20-10.84-20-7.59,0-16.48,8.2-19.08,21.41l-8.89,43.49c-3.26,15.94-14.09,23.23-27.1,23.23s-20.82-7.29-17.57-23.23l16.05-79.47C382.76,7.74,391,0,405.75,0,419,0,422.44,8,421.14,22.09h.43C431.76,8,445.86,0,463,0c14.53,0,28.41,6.83,28.84,23,13-16.62,26.67-23,42.49-23,30.79,0,39.25,20,34,46l-11.27,55.79C553.83,117.73,543,125,530,125s-20.81-7.29-17.56-23.23Z"/><path class="cls-4" d="M633.17,0c-24.35,0-45.48,7-55.11,18.53,2,7.08,2.34,15.27,1.08,24.32a16.5,16.5,0,0,0,4.82.64c15.18,0,23-16.16,42.27-16.16,11.94,0,17.36,4.1,15.83,11.61-1.73,8-8.89,10.48-25.79,11.61-17.41,1.15-30.49,4.06-40.21,8.33L567,103.79a43,43,0,0,1-6.21,15.35c6.22,4,14.88,5.88,25.13,5.88,15.4,0,32.32-5.23,43.8-18.9-.65,10.7,3.26,18.9,18.66,18.9,10.62,0,21.88-5,24.28-16.63,1.08-5.69,1.3-13,3-21.18l10.41-52.14C692.14,5.69,656.81,0,633.17,0Zm0,82c-1.73,8.88-12.13,17.08-24.72,17.08-7.15,0-12.57-4.55-11.27-11.61a13.07,13.07,0,0,1,8-9.8c8.89-3.41,23-2,30.79-9.1Z"/><path class="cls-4" d="M774.74,3H704.06c-7,0-12,1.14-15.62,3.85.47.51.92,1,1.36,1.55,4.26,5.23,8.75,14.18,6.43,27.39h34.29L689.24,70.87l-3.69,18.44c-.89,4.23-1.34,8.25-1.78,12.15-.35,3.1-.67,6-1.21,8.83l0,.14a28.48,28.48,0,0,1-5.28,11.62h74.51c10.19,0,17.34-3.41,19.94-16.38s-3-16.4-13.23-16.4h-38.8l56.15-48.74c7.38-6.37,9.54-10,11.06-17.53C789.27,11.39,786,3,774.74,3Z"/></g><g class="cls-6"><path class="cls-4" d="M814.08,94.2c7.12,0,12.86,6,12.86,13.5s-5.74,13.51-12.86,13.51-12.86-6-12.86-13.51S807,94.2,814.08,94.2Z"/><path class="cls-4" d="M918.21,86c0-7.84-2.53-10.61-7.81-10.61-4,0-7.92,4.34-7.92,11.33v23c0,8.44-4.94,12.3-11.83,12.3s-11.82-3.86-11.82-12.3V86c0-7.84-2.53-10.61-7.81-10.61-4,0-7.92,4.34-7.92,11.33v23c0,8.44-4.94,12.3-11.83,12.3s-11.82-3.86-11.82-12.3V67.67c0-7.72,3.56-11.82,11.36-11.82,7,0,9.76,4.22,10.57,11.7h.23c3.9-7.48,10.44-11.7,19.51-11.7,7.7,0,15.73,3.62,17.8,12.18,5.05-8.8,11.59-12.18,20-12.18,16.3,0,23,10.62,23,24.36v29.54c0,8.44-4.94,12.3-11.83,12.3s-11.82-3.86-11.82-12.3Z"/><path class="cls-4" d="M995,86c0-6.87-2.87-10.61-8.73-10.61s-8.72,4.82-8.72,12.3v22.06c0,8.44-4.94,12.3-11.83,12.3s-11.82-3.86-11.82-12.3V67.67c0-7.72,3.55-11.82,11.36-11.82,7,0,9.76,4.22,10.56,11.7h.23c3.91-7.48,10.45-11.7,19.52-11.7,16.42,0,23.08,10.62,23.08,24.36v29.54c0,8.44-4.94,12.3-11.83,12.3S995,118.19,995,109.75Z"/></g></g><g id="Онлайн_авто_диллер" data-name="Онлайн авто диллер" class="cls-6"><g class="cls-6"><path class="cls-4" d="M377.6,182.89a15.08,15.08,0,0,1-6.65-1.44,16.1,16.1,0,0,1-5.13-3.81A17.59,17.59,0,0,1,361.33,166a16.79,16.79,0,0,1,1.24-6.39,17.63,17.63,0,0,1,3.44-5.41,16.23,16.23,0,0,1,5.19-3.74,15.38,15.38,0,0,1,6.54-1.39,14.75,14.75,0,0,1,6.61,1.48,16.52,16.52,0,0,1,5.1,3.88,18,18,0,0,1,3.3,5.46,17.26,17.26,0,0,1,1.17,6.21,17,17,0,0,1-1.22,6.37,17.44,17.44,0,0,1-3.39,5.36,16.28,16.28,0,0,1-5.17,3.72A15.53,15.53,0,0,1,377.6,182.89ZM367.91,166a13.41,13.41,0,0,0,.66,4.19,11.27,11.27,0,0,0,1.9,3.58,9.53,9.53,0,0,0,3.06,2.49,8.78,8.78,0,0,0,4.12.94,8.66,8.66,0,0,0,4.16-1,9.36,9.36,0,0,0,3.06-2.56,11.35,11.35,0,0,0,1.88-3.6,13.45,13.45,0,0,0,.63-4.07,12.85,12.85,0,0,0-.68-4.18,11.54,11.54,0,0,0-1.93-3.58,9.41,9.41,0,0,0-3-2.47,9.59,9.59,0,0,0-8.26.05,9.34,9.34,0,0,0-3.06,2.54,11.37,11.37,0,0,0-1.85,3.58A13.1,13.1,0,0,0,367.91,166Z"/><path class="cls-4" d="M433.43,149.26v33.39H427V168.4H411.84v14.25h-6.49V149.26h6.49v13.5H427v-13.5Z"/><path class="cls-4" d="M457.61,160a92.46,92.46,0,0,1-1.42,10.82,23.92,23.92,0,0,1-2.44,7.07,9.42,9.42,0,0,1-3.86,3.88,12.22,12.22,0,0,1-5.64,1.18l-.38-5.83a7.11,7.11,0,0,0,2.8-.8,5.28,5.28,0,0,0,2.07-2.59,23.75,23.75,0,0,0,1.48-5.52c.41-2.4.78-5.59,1.13-9.58l.8-9.4h20.22v33.39h-6.44V155H458Z"/><path class="cls-4" d="M495.37,149.26h5.74l12.7,33.39h-6.68l-3.1-8.32H492.36l-3.05,8.32h-6.68Zm7.48,20.5-4.61-13.12-4.79,13.12Z"/><path class="cls-4" d="M530.41,172.68l17-23.42h4.94v33.39h-6.44v-22.9l-16.79,22.9H524V149.26h6.44Zm16.89-33.11a5.47,5.47,0,0,1-.64,2.65,6.26,6.26,0,0,1-1.71,2.05,7.42,7.42,0,0,1-2.61,1.29A11.87,11.87,0,0,1,539,146a12.09,12.09,0,0,1-3.39-.45,7.35,7.35,0,0,1-2.63-1.29,6.17,6.17,0,0,1-1.72-2.05,5.47,5.47,0,0,1-.64-2.65h3.86a2.19,2.19,0,0,0,.35,1.17,3.33,3.33,0,0,0,1,1,5.28,5.28,0,0,0,1.44.66,6,6,0,0,0,1.74.24,5.07,5.07,0,0,0,3-.87,3.37,3.37,0,0,0,1.45-2.19Z"/><path class="cls-4" d="M594.05,149.26v33.39h-6.44V168.4H572.46v14.25H566V149.26h6.49v13.5h15.15v-13.5Z"/></g><g class="cls-6"><path class="cls-7" d="M634.64,149.26h5.74l12.7,33.39H646.4l-3.1-8.32H631.63l-3.06,8.32H621.9Zm7.48,20.5-4.61-13.12-4.8,13.12Z"/><path class="cls-7" d="M689.62,174a7.88,7.88,0,0,1-.84,3.72,7.79,7.79,0,0,1-2.33,2.68,11,11,0,0,1-3.43,1.65,15.17,15.17,0,0,1-4.17.56H662.72V149.26h17.87a6.64,6.64,0,0,1,3.16.75,7.71,7.71,0,0,1,2.39,2,8.91,8.91,0,0,1,1.53,2.73,9.21,9.21,0,0,1,.54,3.08,9.07,9.07,0,0,1-1.22,4.59,7.47,7.47,0,0,1-3.57,3.17,8.64,8.64,0,0,1,4.54,3A8.8,8.8,0,0,1,689.62,174Zm-20.41-19.23v8.42h8.66a3.84,3.84,0,0,0,2.79-1.13,4.16,4.16,0,0,0,1.16-3.11,4.3,4.3,0,0,0-1.06-3.05,3.42,3.42,0,0,0-2.61-1.13Zm13.88,18a4.8,4.8,0,0,0-.31-1.72,4.9,4.9,0,0,0-.82-1.43,3.77,3.77,0,0,0-1.22-1,3.38,3.38,0,0,0-1.56-.36h-10v8.8h9.64a4.18,4.18,0,0,0,1.67-.33,4,4,0,0,0,1.34-.92,4.27,4.27,0,0,0,.9-1.39A4.35,4.35,0,0,0,683.09,172.82Z"/><path class="cls-7" d="M725.51,155H714.84v27.7h-6.45V155H697.71v-5.69h27.8Z"/><path class="cls-7" d="M748.75,182.89a15.13,15.13,0,0,1-6.66-1.44,16.06,16.06,0,0,1-5.12-3.81,17.14,17.14,0,0,1-3.32-5.43,17.38,17.38,0,0,1-1.18-6.26,16.8,16.8,0,0,1,1.25-6.39,17.79,17.79,0,0,1,3.43-5.41,16.27,16.27,0,0,1,5.2-3.74,15.38,15.38,0,0,1,6.54-1.39,14.78,14.78,0,0,1,6.61,1.48,16.52,16.52,0,0,1,5.1,3.88,17.81,17.81,0,0,1,3.29,5.46,17.09,17.09,0,0,1,0,12.58,17.44,17.44,0,0,1-3.39,5.36,16.28,16.28,0,0,1-5.17,3.72A15.53,15.53,0,0,1,748.75,182.89ZM739.06,166a13.41,13.41,0,0,0,.66,4.19,11.27,11.27,0,0,0,1.9,3.58,9.53,9.53,0,0,0,3.06,2.49,8.76,8.76,0,0,0,4.11.94,8.67,8.67,0,0,0,4.17-1,9.42,9.42,0,0,0,3-2.56,11.58,11.58,0,0,0,1.89-3.6,13.45,13.45,0,0,0,.63-4.07,13.12,13.12,0,0,0-.68-4.18,11.75,11.75,0,0,0-1.93-3.58,9.35,9.35,0,0,0-3.06-2.47,9.57,9.57,0,0,0-8.25.05,9.34,9.34,0,0,0-3.06,2.54,11.61,11.61,0,0,0-1.86,3.58A13.39,13.39,0,0,0,739.06,166Z"/><path class="cls-7" d="M791.31,177h1.18a4.23,4.23,0,0,0,2.4-.8,6.16,6.16,0,0,0,1.83-2.77,29,29,0,0,0,1.41-5.58c.41-2.37.79-5.41,1.13-9.15l.85-9.4h20.22V177h4.94v14h-6.06v-8.33H797.43V191h-6.12Zm22.53,0V155H806l-.47,5.08a71,71,0,0,1-1.58,10.63,18.14,18.14,0,0,1-2.61,6.3Z"/><path class="cls-7" d="M842.53,172.68l17-23.42h4.94v33.39h-6.45v-22.9l-16.79,22.9h-5.17V149.26h6.44Z"/><path class="cls-7" d="M888.67,160a90.59,90.59,0,0,1-1.41,10.82,23.92,23.92,0,0,1-2.44,7.07A9.42,9.42,0,0,1,881,181.8a12.25,12.25,0,0,1-5.64,1.18l-.38-5.83a7.11,7.11,0,0,0,2.8-.8,5.28,5.28,0,0,0,2.07-2.59,23.75,23.75,0,0,0,1.48-5.52c.41-2.4.78-5.59,1.13-9.58l.8-9.4h20.22v33.39H897V155h-7.9Z"/><path class="cls-7" d="M927.66,160a90.59,90.59,0,0,1-1.41,10.82,23.92,23.92,0,0,1-2.44,7.07A9.42,9.42,0,0,1,920,181.8a12.25,12.25,0,0,1-5.64,1.18l-.38-5.83a7.11,7.11,0,0,0,2.8-.8,5.28,5.28,0,0,0,2.07-2.59,23.75,23.75,0,0,0,1.48-5.52c.41-2.4.78-5.59,1.13-9.58l.8-9.4h20.22v33.39H936V155h-7.9Z"/><path class="cls-7" d="M979.26,177v5.69H956.07V149.26h22.77V155H962.56v8h14.07v5.27H962.56V177Z"/><path class="cls-7" d="M990.83,182.65V149.26H1005a9.54,9.54,0,0,1,4.26,1,11,11,0,0,1,3.36,2.54,11.87,11.87,0,0,1,2.21,3.58,10.79,10.79,0,0,1,.8,4,11.59,11.59,0,0,1-.75,4.11,11.44,11.44,0,0,1-2.12,3.55,10.44,10.44,0,0,1-3.29,2.5,9.65,9.65,0,0,1-4.24.94h-7.9v11.19Zm6.49-16.88h7.53a3.7,3.7,0,0,0,3-1.46,6,6,0,0,0,1.2-3.95,6.49,6.49,0,0,0-.37-2.28,5.43,5.43,0,0,0-1-1.72,4.08,4.08,0,0,0-1.43-1.06,4.31,4.31,0,0,0-1.67-.35h-7.25Z"/></g></g></g></g></svg>