<svg xmlns="http://www.w3.org/2000/svg" viewBox="0 0 607.6 133.53"><defs><style>.cls-1{fill:#225da9;}.cls-2{fill:#2996ff;}.cls-3{fill:#e23149;}.cls-4{fill:#2b3651;}.cls-5{fill:#1447ef;}.cls-6{isolation:isolate;}.cls-7{fill:#df2626;}</style></defs><title>logo</title><g id="Layer_2" data-name="Layer 2"><g id="Layer_1-2" data-name="Layer 1"><g id="Group_3689" data-name="Group 3689"><path id="Path_2767" data-name="Path 2767" class="cls-1" d="M24.54.66A26.57,26.57,0,0,0,21.86.8a26.7,26.7,0,0,1,3-.17A24.53,24.53,0,0,1,45.52,12L43.36,9.43A24.46,24.46,0,0,0,24.54.66Z"/><path id="Path_2768" data-name="Path 2768" class="cls-2" d="M49.61,92v10.84a24.8,24.8,0,1,1-49.6.76V27.29a24.76,24.76,0,0,0,5.55,12.4Z"/><path id="Path_2769" data-name="Path 2769" class="cls-3" d="M89.56,126.91a24.51,24.51,0,0,1-18.82-8.77L5.75,41A24.55,24.55,0,1,1,43.35,9.43l65,77.14a24.55,24.55,0,0,1-18.79,40.34Z"/><path id="Path_2770" data-name="Path 2770" class="cls-4" d="M164.57,126.91a24.48,24.48,0,0,1-18.81-8.77L80.76,41A24.55,24.55,0,1,1,118.14,9.17a2.75,2.75,0,0,1,.22.26l65,77.14a24.55,24.55,0,0,1-18.79,40.34Z"/><path id="Path_2771" data-name="Path 2771" class="cls-5" d="M49.61,24.78V93.06l-44-52.3A24.56,24.56,0,0,1,0,28.37V24.78A24.82,24.82,0,0,1,21.64.18l.18,0A24.8,24.8,0,0,1,43.54,8.86l2.19,2.6A24.64,24.64,0,0,1,49.61,24.78Z"/></g><path class="cls-4" d="M247.7,23.07a38.47,38.47,0,0,1,10.8,1.55,26.61,26.61,0,0,1,9.19,4.63,39.35,39.35,0,0,1,9.06-4.43,37.3,37.3,0,0,1,12.14-1.75,37.9,37.9,0,0,1,10,1.34,25.73,25.73,0,0,1,8.72,4.23,20.62,20.62,0,0,1,6.11,7.65A26.76,26.76,0,0,1,316,47.9V90.17a31.64,31.64,0,0,1-4.23.8,42.83,42.83,0,0,1-6,.41,31.28,31.28,0,0,1-5.3-.41,9,9,0,0,1-4-1.61,7.74,7.74,0,0,1-2.48-3.28,14.3,14.3,0,0,1-.87-5.44V48.57q0-4-2.28-5.84a9.67,9.67,0,0,0-6.18-1.81,10.73,10.73,0,0,0-4,.87,11.73,11.73,0,0,0-3.22,1.81,4.74,4.74,0,0,1,.13,1V90.17a38.12,38.12,0,0,1-4.36.8,42,42,0,0,1-5.84.41,31.36,31.36,0,0,1-5.3-.41,9.06,9.06,0,0,1-4-1.61,7.74,7.74,0,0,1-2.48-3.28,14.3,14.3,0,0,1-.87-5.44V48.57q0-4-2.48-5.84a9.87,9.87,0,0,0-6-1.81,10.7,10.7,0,0,0-4.16.74,30.87,30.87,0,0,0-2.95,1.41v47.1A31,31,0,0,1,235,91a42.83,42.83,0,0,1-6,.41,31.36,31.36,0,0,1-5.3-.41,9.06,9.06,0,0,1-4-1.61,7.74,7.74,0,0,1-2.48-3.28,14.3,14.3,0,0,1-.87-5.44V40.12A9.67,9.67,0,0,1,218,34.35a17.45,17.45,0,0,1,4.23-4,38.47,38.47,0,0,1,11.34-5.23A49.11,49.11,0,0,1,247.7,23.07Z"/><path class="cls-4" d="M356.79,22A54.81,54.81,0,0,1,370,23.48,29.57,29.57,0,0,1,380.21,28a20.31,20.31,0,0,1,6.51,7.65A24.51,24.51,0,0,1,389,46.56V76.61a8.33,8.33,0,0,1-1.95,5.71,19.47,19.47,0,0,1-4.63,3.82q-8.71,5.24-24.56,5.24A55.72,55.72,0,0,1,345.05,90a30.36,30.36,0,0,1-9.8-4,18.37,18.37,0,0,1-6.3-6.85,20.2,20.2,0,0,1-2.22-9.66q0-9.26,5.5-14.22t17-6.17l17.58-1.88v-.94a5.76,5.76,0,0,0-3.43-5.57Q360,39,353.57,39a45.37,45.37,0,0,0-9.93,1.08,52.43,52.43,0,0,0-8.72,2.68A9.19,9.19,0,0,1,332,39.11a11.64,11.64,0,0,1-1.21-5.17,8.62,8.62,0,0,1,1.68-5.57,12.89,12.89,0,0,1,5.16-3.55,40.24,40.24,0,0,1,9.19-2.15A79.42,79.42,0,0,1,356.79,22Zm1.07,52.74a30.49,30.49,0,0,0,5-.47A12.39,12.39,0,0,0,367,73V62.26l-9.66.8a14.9,14.9,0,0,0-6.17,1.61,4.33,4.33,0,0,0-2.42,4,5.33,5.33,0,0,0,2.08,4.36C352.21,74.18,354.55,74.74,357.86,74.74Z"/><path class="cls-4" d="M405.23,91.38A14.48,14.48,0,0,1,401.81,87a12.75,12.75,0,0,1-1.28-5.77,12,12,0,0,1,1.28-5.3A24.63,24.63,0,0,1,405,71L428,43.87H403.35a22.49,22.49,0,0,1-1.54-3.75,16.18,16.18,0,0,1-.74-5q0-4.69,2.08-6.78a7.55,7.55,0,0,1,5.57-2.08H451a14.48,14.48,0,0,1,3.42,4.43,12.75,12.75,0,0,1,1.28,5.77,12,12,0,0,1-1.28,5.3,24.63,24.63,0,0,1-3.15,4.9L428.71,73.8H455a22.49,22.49,0,0,1,1.54,3.75,16.18,16.18,0,0,1,.74,5c0,3.13-.7,5.39-2.08,6.78a7.57,7.57,0,0,1-5.57,2.08Z"/><path class="cls-4" d="M470.56,84.1a7.39,7.39,0,0,1,1.93-5.2,7.73,7.73,0,0,1,10.55,0,8,8,0,0,1,0,10.4,7.73,7.73,0,0,1-10.55,0A7.39,7.39,0,0,1,470.56,84.1Z"/><path class="cls-4" d="M515.71,48.26a24,24,0,0,1,6.78,1,16.67,16.67,0,0,1,5.77,2.9,25,25,0,0,1,5.68-2.78,23.43,23.43,0,0,1,7.62-1.09,23.71,23.71,0,0,1,6.28.84,16.23,16.23,0,0,1,5.48,2.65,12.87,12.87,0,0,1,3.83,4.81,16.81,16.81,0,0,1,1.43,7.28V90.38a21.61,21.61,0,0,1-2.65.5,26.94,26.94,0,0,1-3.75.25,19.64,19.64,0,0,1-3.33-.25,5.61,5.61,0,0,1-2.48-1,4.8,4.8,0,0,1-1.56-2.06,8.86,8.86,0,0,1-.55-3.42V64.26a4.41,4.41,0,0,0-1.43-3.66A6.07,6.07,0,0,0,539,59.46a6.6,6.6,0,0,0-2.52.55,6.82,6.82,0,0,0-2,1.14,2.86,2.86,0,0,1,.08.63v28.6a28.75,28.75,0,0,1-6.4.75,19.64,19.64,0,0,1-3.33-.25,5.61,5.61,0,0,1-2.48-1,4.8,4.8,0,0,1-1.56-2.06,8.86,8.86,0,0,1-.55-3.42V64.26a4.23,4.23,0,0,0-1.56-3.66,6.18,6.18,0,0,0-3.75-1.14,6.84,6.84,0,0,0-2.61.46,19.22,19.22,0,0,0-1.85.89V90.38a21.61,21.61,0,0,1-2.65.5,26.94,26.94,0,0,1-3.75.25,19.64,19.64,0,0,1-3.33-.25,5.61,5.61,0,0,1-2.48-1,4.8,4.8,0,0,1-1.56-2.06,8.86,8.86,0,0,1-.55-3.42V59a6.08,6.08,0,0,1,1-3.63,10.9,10.9,0,0,1,2.65-2.52,24.11,24.11,0,0,1,7.12-3.29A31.11,31.11,0,0,1,515.71,48.26Z"/><path class="cls-4" d="M593.28,64.52a4.73,4.73,0,0,0-1.47-3.84,6.1,6.1,0,0,0-4-1.22,13.39,13.39,0,0,0-3.33.42,8.39,8.39,0,0,0-2.82,1.27V90.38a21.61,21.61,0,0,1-2.65.5,26.94,26.94,0,0,1-3.75.25,19.64,19.64,0,0,1-3.33-.25,5.61,5.61,0,0,1-2.48-1,4.8,4.8,0,0,1-1.56-2.06,8.86,8.86,0,0,1-.55-3.42V59.12a6.44,6.44,0,0,1,1-3.7A10,10,0,0,1,571,52.81a24,24,0,0,1,7.2-3.29,34.59,34.59,0,0,1,9.65-1.26q9.51,0,14.65,4.17T607.6,64V90.38a21.23,21.23,0,0,1-2.65.5,26.94,26.94,0,0,1-3.75.25,19.81,19.81,0,0,1-3.33-.25,5.61,5.61,0,0,1-2.48-1,5,5,0,0,1-1.56-2.06,8.86,8.86,0,0,1-.55-3.42Z"/><g id="Онлайн_авто_диллер" data-name="Онлайн авто диллер" class="cls-6"><path class="cls-4" d="M226.36,128.7a9,9,0,0,1-4-.85,9.65,9.65,0,0,1-3.06-2.28,10,10,0,0,1-2-3.24,10.29,10.29,0,0,1-.71-3.73,9.93,9.93,0,0,1,.75-3.82,10.33,10.33,0,0,1,2.05-3.23,9.64,9.64,0,0,1,3.1-2.23,9.1,9.1,0,0,1,3.9-.83,8.78,8.78,0,0,1,3.95.88,9.72,9.72,0,0,1,3,2.32,10.49,10.49,0,0,1,2,3.26,10.16,10.16,0,0,1,.7,3.7,10.05,10.05,0,0,1-.73,3.81,10.53,10.53,0,0,1-2,3.2,9.74,9.74,0,0,1-3.09,2.21A9.1,9.1,0,0,1,226.36,128.7Zm-5.78-10.1a8,8,0,0,0,.39,2.49,6.56,6.56,0,0,0,1.14,2.14,5.63,5.63,0,0,0,1.82,1.49,5.31,5.31,0,0,0,2.46.56,5.13,5.13,0,0,0,2.48-.58,5.63,5.63,0,0,0,1.83-1.53,6.78,6.78,0,0,0,1.12-2.15,8,8,0,0,0,.38-2.42,7.75,7.75,0,0,0-.41-2.5,6.78,6.78,0,0,0-1.15-2.14,5.33,5.33,0,0,0-1.82-1.47,5.66,5.66,0,0,0-4.93,0,5.62,5.62,0,0,0-1.83,1.51,7.13,7.13,0,0,0-1.11,2.14A8,8,0,0,0,220.58,118.6Z"/><path class="cls-4" d="M259.69,108.63v19.93h-3.85v-8.51h-9v8.51h-3.88V108.63h3.88v8.06h9v-8.06Z"/><path class="cls-4" d="M274.12,115.06a55.23,55.23,0,0,1-.85,6.46,14.39,14.39,0,0,1-1.45,4.22,5.66,5.66,0,0,1-2.31,2.32,7.31,7.31,0,0,1-3.37.7l-.22-3.48a4.29,4.29,0,0,0,1.67-.48,3.18,3.18,0,0,0,1.24-1.54,14.37,14.37,0,0,0,.88-3.3c.24-1.43.47-3.34.67-5.72l.48-5.61h12.07v19.93h-3.84V112h-4.72Z"/><path class="cls-4" d="M296.66,108.63h3.43l7.58,19.93h-4l-1.85-5h-7l-1.83,5h-4Zm4.47,12.24L298.38,113l-2.87,7.83Z"/><path class="cls-4" d="M317.58,122.61l10.16-14h2.95v19.93h-3.85V114.89l-10,13.67h-3.09V108.63h3.85Zm10.08-19.77a3.39,3.39,0,0,1-.38,1.59,3.64,3.64,0,0,1-1,1.22,4.56,4.56,0,0,1-1.56.77,7.08,7.08,0,0,1-2,.27,7.2,7.2,0,0,1-2-.27,4.35,4.35,0,0,1-1.57-.77,3.67,3.67,0,0,1-1-1.22,3.39,3.39,0,0,1-.38-1.59H320a1.33,1.33,0,0,0,.21.71,2.21,2.21,0,0,0,.59.59,3.37,3.37,0,0,0,.86.39,3.79,3.79,0,0,0,1,.14,3,3,0,0,0,1.8-.52,2.06,2.06,0,0,0,.87-1.31Z"/><path class="cls-4" d="M355.57,108.63v19.93h-3.85v-8.51h-9v8.51h-3.87V108.63h3.87v8.06h9v-8.06Z"/><g class="cls-6"><path class="cls-7" d="M379.8,108.63h3.42l7.58,19.93h-4l-1.86-5h-7l-1.83,5h-4Zm4.46,12.24L381.51,113l-2.87,7.83Z"/><path class="cls-7" d="M412.62,123.42a4.61,4.61,0,0,1-.51,2.22,4.55,4.55,0,0,1-1.39,1.6,6.62,6.62,0,0,1-2.05,1,9,9,0,0,1-2.48.33h-9.63V108.63h10.67a3.93,3.93,0,0,1,1.88.45,4.77,4.77,0,0,1,1.43,1.16,5.31,5.31,0,0,1,.91,1.63,5.38,5.38,0,0,1,.33,1.84,5.51,5.51,0,0,1-.73,2.74,4.45,4.45,0,0,1-2.14,1.89,5.13,5.13,0,0,1,2.71,1.81A5.2,5.2,0,0,1,412.62,123.42Zm-12.19-11.48v5h5.17a2.31,2.31,0,0,0,1.67-.68,2.46,2.46,0,0,0,.69-1.85,2.54,2.54,0,0,0-.64-1.83,2.07,2.07,0,0,0-1.55-.67Zm8.29,10.75a3,3,0,0,0-.19-1,2.79,2.79,0,0,0-.49-.86,2.26,2.26,0,0,0-.73-.57,2.05,2.05,0,0,0-.93-.21h-5.95v5.25h5.76a2.59,2.59,0,0,0,1-.2,2.3,2.3,0,0,0,.79-.55,2.54,2.54,0,0,0,.54-.82A2.69,2.69,0,0,0,408.72,122.69Z"/><path class="cls-7" d="M434,112h-6.37v16.53h-3.85V112h-6.37v-3.4H434Z"/><path class="cls-7" d="M447.91,128.7a9.06,9.06,0,0,1-4-.85,9.65,9.65,0,0,1-3.06-2.28,10.13,10.13,0,0,1-2-3.24,10.28,10.28,0,0,1-.7-3.73,9.92,9.92,0,0,1,.74-3.82,10.52,10.52,0,0,1,2.05-3.23,9.64,9.64,0,0,1,3.1-2.23,9.1,9.1,0,0,1,3.9-.83,8.75,8.75,0,0,1,3.95.88,9.88,9.88,0,0,1,3.05,2.32,10.66,10.66,0,0,1,2,3.26,10.16,10.16,0,0,1,.7,3.7,10.05,10.05,0,0,1-.73,3.81,10.34,10.34,0,0,1-2,3.2,9.74,9.74,0,0,1-3.09,2.21A9.1,9.1,0,0,1,447.91,128.7Zm-5.78-10.1a8,8,0,0,0,.39,2.49,6.56,6.56,0,0,0,1.14,2.14,5.63,5.63,0,0,0,1.82,1.49,5.31,5.31,0,0,0,2.46.56,5.13,5.13,0,0,0,2.48-.58,5.63,5.63,0,0,0,1.83-1.53,6.78,6.78,0,0,0,1.12-2.15,8,8,0,0,0,.38-2.42,7.75,7.75,0,0,0-.41-2.5,6.78,6.78,0,0,0-1.15-2.14,5.33,5.33,0,0,0-1.82-1.47,5.66,5.66,0,0,0-4.93,0,5.62,5.62,0,0,0-1.83,1.51,7.13,7.13,0,0,0-1.11,2.14A8,8,0,0,0,442.13,118.6Z"/><path class="cls-7" d="M473.32,125.16h.7a2.45,2.45,0,0,0,1.43-.47,3.7,3.7,0,0,0,1.1-1.66,16.92,16.92,0,0,0,.84-3.33c.24-1.41.47-3.23.67-5.46l.51-5.61h12.07v16.53h2.95v8.37H490v-5H477v5h-3.65Zm13.45,0V112h-4.69l-.28,3a43.64,43.64,0,0,1-.94,6.34,10.92,10.92,0,0,1-1.56,3.76Z"/><path class="cls-7" d="M503.89,122.61l10.17-14h3v19.93h-3.85V114.89l-10,13.67h-3.09V108.63h3.84Z"/><path class="cls-7" d="M531.44,115.06a55.23,55.23,0,0,1-.85,6.46,14.09,14.09,0,0,1-1.46,4.22,5.59,5.59,0,0,1-2.3,2.32,7.34,7.34,0,0,1-3.37.7l-.22-3.48a4.34,4.34,0,0,0,1.67-.48,3.11,3.11,0,0,0,1.23-1.54A13.81,13.81,0,0,0,527,120c.24-1.43.47-3.34.67-5.72l.48-5.61h12.07v19.93h-3.84V112h-4.72Z"/><path class="cls-7" d="M554.71,115.06a55.46,55.46,0,0,1-.84,6.46,14.37,14.37,0,0,1-1.46,4.22,5.7,5.7,0,0,1-2.3,2.32,7.34,7.34,0,0,1-3.37.7l-.23-3.48a4.24,4.24,0,0,0,1.67-.48,3.18,3.18,0,0,0,1.24-1.54,13.87,13.87,0,0,0,.88-3.3c.25-1.43.47-3.34.68-5.72l.47-5.61h12.08v19.93h-3.85V112H555Z"/><path class="cls-7" d="M585.51,125.16v3.4H571.67V108.63h13.59V112h-9.72v4.8h8.4V120h-8.4v5.19Z"/><path class="cls-7" d="M592.42,128.56V108.63h8.45a5.7,5.7,0,0,1,2.54.57,6.59,6.59,0,0,1,2,1.52,7.31,7.31,0,0,1,1.32,2.13,6.41,6.41,0,0,1,.47,2.4,7.09,7.09,0,0,1-.44,2.46,6.88,6.88,0,0,1-1.27,2.12,6.29,6.29,0,0,1-2,1.49,5.76,5.76,0,0,1-2.53.56h-4.72v6.68Zm3.87-10.08h4.49a2.22,2.22,0,0,0,1.79-.87,3.63,3.63,0,0,0,.71-2.36,3.88,3.88,0,0,0-.22-1.36,3.38,3.38,0,0,0-.59-1,2.31,2.31,0,0,0-.86-.63,2.48,2.48,0,0,0-1-.21h-4.33Z"/></g></g></g></g></svg>